<?xml version="1.0" encoding="UTF-8"?>
<svg version="1.1" xmlns="http://www.w3.org/2000/svg" width="1024" height="1024">
<path d="M0 0 C337.92 0 675.84 0 1024 0 C1024 337.92 1024 675.84 1024 1024 C686.08 1024 348.16 1024 0 1024 C0 686.08 0 348.16 0 0 Z " fill="#FEFEFE" transform="translate(0,0)"/>
<path d="M0 0 C9.92786369 0.43735082 19.38883291 2.63515756 29 5 C29.73669922 5.18046875 30.47339844 5.3609375 31.23242188 5.546875 C71.13492535 15.513602 108.82816136 35.30611272 138.18505859 64.22460938 C140.02420481 66.02367734 141.89352892 67.78634127 143.76953125 69.546875 C157.69417409 82.79658979 168.67284029 98.24434962 178 115 C178.4017041 115.70527832 178.8034082 116.41055664 179.21728516 117.13720703 C189.20202459 134.74763298 195.74024182 153.50040869 201 173 C201.23460937 173.86625 201.46921875 174.7325 201.7109375 175.625 C203.20032415 181.66888784 203.60143178 187.80121526 204 194 C204.80737358 193.60548645 204.80737358 193.60548645 205.63105774 193.20300293 C211.21201164 190.58465622 216.55212202 188.90301907 222.60546875 187.78125 C223.508311 187.61306763 224.41115326 187.44488525 225.34135437 187.27160645 C235.97500871 185.45259053 246.55274064 185.38595436 257.3125 185.5 C258.8554776 185.50830841 258.8554776 185.50830841 260.42962646 185.51678467 C275.62089262 185.61262769 290.21604623 186.22045008 305 190 C305.90733887 190.21962402 306.81467773 190.43924805 307.74951172 190.66552734 C318.69240216 193.35322145 328.93027315 196.7482367 338.95507812 201.94580078 C341.26408528 203.13614139 343.59250551 204.2836349 345.921875 205.43359375 C366.9359903 215.95915146 386.11764849 229.4891256 403.3046875 245.515625 C405.43771217 247.48171731 407.59738518 249.38693658 409.79296875 251.28125 C439.2960135 277.01500017 439.2960135 277.01500017 441 288 C441.50586402 296.53124335 440.59856024 304.82693911 439.3125 313.25 C439.13243408 314.43440674 438.95236816 315.61881348 438.7668457 316.83911133 C437.3084464 325.95145931 435.33342198 334.38710801 432 343 C431.75411133 343.64404785 431.50822266 344.2880957 431.25488281 344.95166016 C424.3725691 362.68419617 414.38103118 376.5920336 401 390 C400.43772705 390.58273682 399.8754541 391.16547363 399.29614258 391.76586914 C395.1595647 396.01597031 390.78976843 399.7356291 386.0625 403.3125 C384.94681641 404.15760132 384.94681641 404.15760132 383.80859375 405.01977539 C364.48689397 419.45988047 342.78999983 430.58919727 321.375 441.5625 C295.96348036 454.55862143 295.96348036 454.55862143 272 470 C271.02417969 470.69222656 270.04835938 471.38445312 269.04296875 472.09765625 C243.04859404 491.01782372 223.01330676 515.62606246 216.75 547.8125 C215.13741263 558.88071333 214.38887797 569.97081844 220 580 C220.31582031 580.63164063 220.63164063 581.26328125 220.95703125 581.9140625 C225.63301059 589.86497869 235.39290095 593.30759881 243.45922852 596.93188477 C254.05441012 601.71347269 262.66619503 606.65069859 267 618 C267.4125 618.9075 267.825 619.815 268.25 620.75 C269.61104984 626.64788263 270.39033855 633.31996402 267.54296875 638.80859375 C266 641 266 641 265 642 C263.21804418 642.12520624 261.43114917 642.18073899 259.64501953 642.20874023 C258.49937531 642.22803085 257.35373108 642.24732147 256.17337036 642.26719666 C250.88935821 642.32490393 245.60551676 642.37460565 240.32128906 642.4050293 C237.54118809 642.42273386 234.7621225 642.457363 231.98242188 642.50756836 C227.96989078 642.57995175 223.95845749 642.60208486 219.9453125 642.62109375 C218.71467072 642.64892441 217.48402893 642.67675507 216.21609497 642.70542908 C204.39955164 642.67757823 196.33632228 637.81430397 187.75 630.0625 C187.15501709 629.53817383 186.56003418 629.01384766 185.94702148 628.47363281 C179.10312348 622.39893372 172.9637405 615.9323042 167 609 C165.99544258 607.84708877 164.99017209 606.69479865 163.984375 605.54296875 C159.01289903 599.84158004 154.06645401 594.13544573 149.3125 588.25 C145.4865988 583.52553852 141.45616432 579.02745515 137.3359375 574.55859375 C135.33686437 572.36897351 133.41125858 570.14069385 131.5 567.875 C119.49602916 554.12806384 104.40912229 543.45836105 86 541 C86.75023437 541.54527344 87.50046875 542.09054687 88.2734375 542.65234375 C107.93228929 557.13651037 123.10947685 573.09573493 127 598 C128.25440602 611.13602708 125.89083677 622.84542937 119.875 634.4453125 C119.31619141 635.54178101 119.31619141 635.54178101 118.74609375 636.66040039 C117.83646876 638.44320705 116.91904128 640.22202915 116 642 C84.86567087 642.36537742 53.73191102 642.64834395 22.59594546 642.81704527 C18.91617366 642.83705544 15.2364061 642.85776471 11.55664062 642.87890625 C10.82409712 642.88310322 10.09155361 642.88730018 9.33681181 642.89162433 C-2.508887 642.9611574 -14.35333744 643.08725727 -26.19829682 643.23444474 C-38.36173027 643.38432362 -50.52451219 643.47299245 -62.68883109 643.50541592 C-70.18958614 643.52732119 -77.68681287 643.59636021 -85.18648085 643.72666347 C-90.94750801 643.82163049 -96.70629937 643.83122252 -102.46795273 643.8097229 C-104.82391652 643.8141117 -107.18001828 643.84577319 -109.53518295 643.9072876 C-126.81045254 644.33622714 -126.81045254 644.33622714 -132.0978651 640.46339035 C-135.76105156 636.78024749 -138.4222353 632.63277772 -140.87211943 628.07510185 C-142.3486644 625.35851883 -144.02490289 622.79511758 -145.71809411 620.21004581 C-160.389519 597.2854536 -167.28231634 568.96888436 -161.92382812 541.98681641 C-158.67623575 528.30193168 -152.58248648 516.17795431 -144.72265625 504.59765625 C-142.90788765 502.3805917 -142.90788765 502.3805917 -143 501 C-150.95271046 506.64493018 -156.54152145 512.94927101 -162 521 C-162.54398437 521.77859375 -163.08796875 522.5571875 -163.6484375 523.359375 C-169.86465895 532.89749257 -173.50009184 544.22577291 -177 555 C-192.93622805 549.22311733 -206.43905749 533.69355577 -214 519 C-219.13103729 508.0027768 -221.49454838 495.33050288 -217.94140625 483.46484375 C-213.42731559 473.7882971 -206.69212091 467.74378815 -196.765625 463.875 C-187.97316082 461.83193778 -175.24513707 460.71390578 -167 465 C-166.89985596 464.41154297 -166.79971191 463.82308594 -166.6965332 463.21679688 C-159.9800359 426.60347755 -138.46024745 390.79176593 -113 364 C-112.52191895 363.4946875 -112.04383789 362.989375 -111.55126953 362.46875 C-89.14290691 338.93608013 -61.8742578 324.40872444 -31 315 C-29.94683594 314.67128906 -28.89367187 314.34257812 -27.80859375 314.00390625 C-11.91321936 309.5383935 4.64993466 308.71918024 21.0625 308.75 C22.09725967 308.75116318 22.09725967 308.75116318 23.15292358 308.75234985 C36.10351465 308.79459199 48.89404971 309.32197486 61.625 311.8125 C62.5624707 311.99135742 63.49994141 312.17021484 64.46582031 312.35449219 C66.38897423 312.72281079 68.31151319 313.09435606 70.23339844 313.46923828 C72.80032425 313.96169299 75.37052681 314.42188245 77.9453125 314.87109375 C103.74100558 319.50095558 128.73884159 328.62017767 152.49414062 339.5625 C156.09702933 341.36297639 156.09702933 341.36297639 160 342 C159.65743164 340.98276855 159.31486328 339.96553711 158.96191406 338.91748047 C157.66900025 335.07545197 156.38031106 331.23201674 155.09277344 327.38818359 C154.53920397 325.73741763 153.98455015 324.08701481 153.42871094 322.43701172 C150.30988044 313.17622442 147.31299899 303.93020617 144.75292969 294.49658203 C144.23925774 292.081651 144.23925774 292.081651 143 291 C140.27273504 290.54698629 137.54885943 290.14021217 134.8125 289.75 C77.0489247 280.84200009 20.00091789 256.04606278 -23 216 C-24.35006164 214.82858546 -25.70407514 213.6617058 -27.0625 212.5 C-34.28792146 206.174129 -40.69477717 199.37240132 -46.6875 191.87109375 C-49.04566982 188.94329845 -51.4878993 186.10148831 -53.9375 183.25 C-59.53350123 176.55400477 -64.3859802 169.40157191 -69 162 C-69.38833008 161.38463379 -69.77666016 160.76926758 -70.17675781 160.13525391 C-72.24511568 156.72400698 -73 155.09129473 -73 151 C-52.69657054 142.62925181 -32.61857318 140.52810657 -10.875 140.5625 C-9.59200012 140.56230362 -9.59200012 140.56230362 -8.28308105 140.56210327 C56.29327661 140.73964716 113.13473243 170.96753433 158.125 216.0625 C159.75217523 217.7061828 161.37768567 219.35151931 163 221 C163.66 221.66 164.32 222.32 165 223 C156.54270455 207.84658125 146.93013046 194.62469285 135 182 C134.2059375 181.14148438 133.411875 180.28296875 132.59375 179.3984375 C117.89325428 164.03376276 99.54690459 152.78942399 82 141 C40.32114201 112.94373204 12.78645378 75.63876393 2.671875 25.69921875 C1.11488465 17.12671956 -0.3493499 8.73374759 0 0 Z " fill="#010101" transform="translate(420,145)"/>
<path d="M0 0 C2.30874711 2.16614803 4.05290181 4.39206608 5.75 7.0625 C6.19859375 7.75472656 6.6471875 8.44695312 7.109375 9.16015625 C7.40328125 9.76730469 7.6971875 10.37445313 8 11 C7.67 11.66 7.34 12.32 7 13 C4.03 9.7 1.06 6.4 -2 3 C-1.34 2.01 -0.68 1.02 0 0 Z " fill="#DADADA" transform="translate(579,358)"/>
<path d="M0 0 C3.21743924 0.18562149 5.35756683 0.82635498 8.25 2.1875 C8.25 2.5175 8.25 2.8475 8.25 3.1875 C-0.32142857 3.47321429 -0.32142857 3.47321429 -3.75 1.1875 C-2.75 0.1875 -2.75 0.1875 0 0 Z " fill="#D7D7D6" transform="translate(474.75,453.8125)"/>
</svg>
